<?xml version="1.0" standalone="no"?>
<!DOCTYPE svg PUBLIC "-//W3C//DTD SVG 20010904//EN"
 "http://www.w3.org/TR/2001/REC-SVG-20010904/DTD/svg10.dtd">
<svg version="1.0" xmlns="http://www.w3.org/2000/svg"
 width="260.000000pt" height="260.000000pt" viewBox="0 0 260.000000 260.000000"
 preserveAspectRatio="xMidYMid meet">
<metadata>
Created by potrace 1.14, written by Peter Selinger 2001-2017
</metadata>
<g transform="translate(0.000000,260.000000) scale(0.100000,-0.100000)"
fill="#000000" stroke="none">
<path d="M321 1468 c-90 -26 -120 -89 -68 -146 18 -19 135 -65 155 -60 19 5
52 -15 52 -33 0 -47 -94 -48 -115 -1 -9 20 -16 22 -72 20 -35 -2 -63 -7 -63
-13 0 -23 41 -75 72 -91 21 -11 61 -18 111 -19 130 -4 179 19 193 92 14 72
-21 103 -150 135 -67 17 -86 25 -84 37 2 10 16 17 40 19 29 2 40 -2 50 -17 11
-18 23 -21 75 -21 l61 0 -7 27 c-17 66 -144 102 -250 71z"/>
<path d="M1996 1410 c2 -50 -1 -54 -37 -51 -18 2 -31 -20 -21 -35 4 -5 15 -10
25 -11 9 0 21 -1 26 -2 4 0 8 -24 7 -53 -1 -46 1 -51 22 -53 12 -1 22 1 23 4
1 3 2 61 3 129 l1 122 -26 0 c-25 0 -26 -2 -23 -50z"/>
<path d="M2179 1449 c-1 -5 -3 -13 -4 -19 -1 -5 -3 -17 -4 -27 0 -9 -19 -34
-42 -55 -33 -32 -39 -41 -29 -53 17 -21 21 -20 65 21 22 20 41 31 43 25 2 -6
19 -20 39 -32 34 -22 36 -22 49 -4 12 16 10 20 -12 31 -40 21 -64 56 -60 87 2
15 1 27 -2 28 -4 0 -15 2 -24 4 -10 2 -19 -1 -19 -6z"/>
<path d="M2324 1433 c1 -23 -4 -28 -29 -33 -17 -3 -30 -11 -30 -20 0 -9 13
-17 30 -20 26 -5 30 -9 29 -38 -1 -30 2 -33 25 -30 25 3 26 4 26 85 0 83 0 83
-26 83 -22 0 -26 -4 -25 -27z"/>
<path d="M630 1285 l0 -165 46 2 45 1 -1 91 c-1 50 -1 96 0 101 1 6 14 -32 30
-83 16 -51 32 -97 34 -101 3 -4 22 -8 43 -7 l38 1 30 88 c16 48 32 87 35 87 3
0 5 -39 5 -87 l0 -88 43 -3 c37 -3 42 -1 43 17 0 12 0 77 0 146 0 69 0 134 0
145 -1 19 -6 21 -73 18 l-72 -3 -26 -83 -25 -84 -19 69 c-30 106 -27 103 -106
103 l-70 0 0 -165z"/>
<path d="M1153 1433 c-35 -18 -43 -30 -43 -69 0 -35 12 -48 79 -84 25 -14 47
-33 49 -43 9 -46 -55 -63 -102 -26 -14 11 -26 17 -27 12 0 -4 -2 -16 -4 -26
-9 -47 112 -66 160 -24 32 27 37 78 9 108 -10 12 -39 31 -64 43 -36 17 -45 27
-45 46 0 20 6 26 28 28 15 2 41 -3 57 -12 29 -14 30 -14 30 9 0 42 -76 64
-127 38z"/>
<path d="M1792 1440 c-4 -3 -8 -13 -10 -22 -2 -15 5 -18 53 -18 54 0 56 -1 50
-22 -10 -33 -44 -67 -89 -90 -35 -18 -37 -21 -23 -35 41 -41 156 65 172 159 4
18 1 28 -7 29 -58 4 -141 3 -146 -1z"/>
<path d="M1293 1420 c1 -20 11 -24 60 -20 l27 2 0 -126 0 -126 25 0 25 0 0
126 c0 124 0 125 23 124 46 -4 66 0 69 16 2 10 19 -9 46 -51 l43 -67 -45 -72
c-42 -67 -44 -71 -23 -74 23 -4 63 37 73 76 9 33 19 28 53 -28 24 -39 36 -50
56 -50 29 0 28 3 -31 96 l-33 51 23 34 c12 19 32 51 45 72 l23 37 -29 0 c-23
0 -33 -8 -56 -50 -16 -28 -30 -50 -32 -50 -2 0 -16 23 -31 50 l-27 50 -143 0
c-137 0 -143 -1 -141 -20z"/>
<path d="M2152 1255 c3 -18 10 -20 85 -20 45 0 85 -4 89 -8 4 -4 -34 -7 -84
-7 l-92 0 0 -50 0 -50 115 0 c108 0 115 1 115 20 0 19 -7 20 -90 20 -53 0 -90
4 -90 10 0 6 36 10 88 10 l88 0 -2 38 c-1 20 -2 42 -3 47 -1 6 -46 10 -111 10
-106 1 -111 0 -108 -20z"/>
<path d="M1822 1175 l0 -55 114 0 c112 0 114 0 114 23 0 21 -3 22 -87 22 l-88
0 -3 33 c-3 26 -8 32 -26 32 -21 0 -23 -5 -24 -55z"/>
</g>
</svg>
